<?xml version="1.0" encoding="iso-8859-1"?>
<!-- Generator: Adobe Illustrator 19.0.0, SVG Export Plug-In . SVG Version: 6.00 Build 0)  -->
<svg version="1.1" id="Layer_1" xmlns="http://www.w3.org/2000/svg" xmlns:xlink="http://www.w3.org/1999/xlink" x="0px" y="0px"
	 viewBox="0 0 512 512" style="enable-background:new 0 0 512 512;" xml:space="preserve">
<g>
	<g>
		<path d="M471.043,378.18V28.318H321.691h-91.332H90.189l-0.21,241.092H0v214.273h121.187v-23.043h349.581
			c22.736,0,41.232-18.497,41.232-41.232C512,396.762,493.652,378.33,471.043,378.18z M439.728,378.173h-0.001H278.689
			c-3.635,0-6.591-2.957-6.591-6.591c0-3.634,2.957-6.591,6.591-6.591h56.056c23.756,0,43.082-19.327,43.082-43.082
			c0-21.213-15.827-39.538-36.815-42.625l-48.765-7.17c-45.769-6.729-74.775-0.18-112.29,14.265l-58.7,25.154l0.219-251.898h108.882
			v72.875h91.333V59.634h118.036V378.173z"/>
	</g>
</g>
<g>
</g>
<g>
</g>
<g>
</g>
<g>
</g>
<g>
</g>
<g>
</g>
<g>
</g>
<g>
</g>
<g>
</g>
<g>
</g>
<g>
</g>
<g>
</g>
<g>
</g>
<g>
</g>
<g>
</g>
</svg>
