<svg height="512pt" viewBox="0 0 512 512" width="512pt" xmlns="http://www.w3.org/2000/svg"><path d="m456.339844 0h-326.058594c-4.144531 0-7.5 3.359375-7.5 7.5s3.355469 7.5 7.5 7.5h118.21875v64.027344c-25.824219 3.65625-45.75 25.90625-45.75 52.722656s19.925781 49.066406 45.75 52.722656v64.027344h-71c-4.140625 0-7.5 3.359375-7.5 7.5 0 21.089844-17.160156 38.25-38.25 38.25s-38.25-17.160156-38.25-38.25c0-4.140625-3.359375-7.5-7.5-7.5h-71v-192.839844c0-22.421875 18.238281-40.660156 40.660156-40.660156h44.621094c4.140625 0 7.5-3.359375 7.5-7.5s-3.359375-7.5-7.5-7.5h-44.621094c-30.691406 0-55.660156 24.96875-55.660156 55.660156v400.679688c0 30.691406 24.96875 55.660156 55.660156 55.660156h330.621094c4.140625 0 7.5-3.359375 7.5-7.5s-3.359375-7.5-7.5-7.5h-122.78125v-64.027344c25.824219-3.65625 45.75-25.90625 45.75-52.722656s-19.925781-49.066406-45.75-52.722656v-64.027344h71c4.140625 0 7.5-3.359375 7.5-7.5 0-21.089844 17.160156-38.25 38.25-38.25s38.25 17.160156 38.25 38.25c0 4.140625 3.359375 7.5 7.5 7.5h71v192.839844c0 22.421875-18.238281 40.660156-40.660156 40.660156h-40.058594c-4.144531 0-7.5 3.359375-7.5 7.5s3.355469 7.5 7.5 7.5h40.058594c30.691406 0 55.660156-24.96875 55.660156-55.660156v-400.679688c0-30.691406-24.96875-55.660156-55.660156-55.660156zm-162.089844 380.25c0 21.089844-17.160156 38.25-38.25 38.25-4.140625 0-7.5 3.359375-7.5 7.5v71h-192.839844c-22.421875 0-40.660156-18.238281-40.660156-40.660156v-192.839844h64.027344c3.65625 25.824219 25.90625 45.75 52.722656 45.75s49.066406-19.925781 52.722656-45.75h64.027344v71c0 4.140625 3.359375 7.5 7.5 7.5 21.089844 0 38.25 17.160156 38.25 38.25zm138.722656-131.75c-3.65625-25.824219-25.90625-45.75-52.722656-45.75s-49.066406 19.925781-52.722656 45.75h-64.027344v-71c0-4.140625-3.359375-7.5-7.5-7.5-21.089844 0-38.25-17.160156-38.25-38.25s17.160156-38.25 38.25-38.25c4.140625 0 7.5-3.359375 7.5-7.5v-71h192.839844c22.421875 0 40.660156 18.238281 40.660156 40.660156v192.839844zm0 0"/></svg>