<svg height="496pt" viewBox="0 0 496 496.00219" width="496pt" xmlns="http://www.w3.org/2000/svg"><path d="m328 92.003906c0-6.617187 5.386719-12 12-12 6.617188 0 12 5.382813 12 12v3.710938c0 3.207031-1.246094 6.214844-3.511719 8.488281l-4.277343 4.277344c-5.296876 5.296875-8.210938 12.328125-8.210938 19.808593v7.714844h16v-7.714844c0-3.207031 1.25-6.214843 3.511719-8.488281l4.28125-4.277343c5.296875-5.296876 8.207031-12.328126 8.207031-19.808594v-3.710938c0-15.441406-12.558594-28-28-28-15.4375 0-28 12.558594-28 28v12h16zm0 0"/><path d="m336 152.003906h16v16h-16zm0 0"/><path d="m492.914062 113.683594-36.914062-28.707032v-44.972656c0-4.417968-3.582031-8-8-8h-60.109375l-38.976563-30.320312c-2.714843-2.113282-6.488281-2.25-9.34375-.335938l-45.992187 30.65625h-53.578125c-4.414062 0-8 3.582032-8 8v44.160156l-37 29.597657c-1.894531 1.511719-3 3.808593-3 6.242187v40h-152c-13.230469 0-24 10.765625-24 24v232h-8c-4.414062 0-8 3.582032-8 8v32c0 22.054688 17.945312 40 40 40h352c22.058594 0 40-17.945312 40-40v-32c0-4.417968-3.582031-8-8-8h-8v-144h72c4.417969 0 8-3.585937 8-8v-144c0-2.472656-1.144531-4.800781-3.085938-6.320312zm-166.800781 78.320312-118.113281 59.054688v-118.113282zm-126.113281 80h168v112h-304v-176h128v56c0 4.414063 3.585938 8 8 8zm33.890625-16 110.109375-55.058594 110.113281 55.058594zm128-64 118.109375-59.058594v118.113282zm111.175781-73.480468-17.066406 8.535156v-21.808594zm-129.425781-100.664063 18.183594 14.144531h-39.40625zm96.359375 30.144531v87.054688l-96 48-96-48v-87.054688zm-208 79.054688-17.238281-8.617188 17.238281-13.800781zm184 328.945312c0 13.230469-10.765625 24-24 24h-352c-13.230469 0-24-10.769531-24-24v-24h96v8c0 13.230469 10.769531 24 24 24h160c13.234375 0 24-10.769531 24-24v-8h96zm-288-24h176v8c0 4.40625-3.589844 8-8 8h-160c-4.40625 0-8-3.59375-8-8zm272-16h-368v-232c0-4.410156 3.59375-8 8-8h152v16h-136c-4.414062 0-8 3.582032-8 8v192c0 4.414063 3.585938 8 8 8h320c4.417969 0 8-3.585937 8-8v-120h16zm0 0"/></svg>