<?xml version="1.0" encoding="iso-8859-1"?>
<!-- Generator: Adobe Illustrator 19.0.0, SVG Export Plug-In . SVG Version: 6.00 Build 0)  -->
<svg version="1.1" id="Capa_1" xmlns="http://www.w3.org/2000/svg" xmlns:xlink="http://www.w3.org/1999/xlink" x="0px" y="0px"
	 viewBox="0 0 480.875 480.875" style="enable-background:new 0 0 480.875 480.875;" xml:space="preserve">
<g>
	<g>
		<path d="M384.438,88.432h-128c-4.418,0-8,3.582-8,8v128c0,4.418,3.582,8,8,8h128c4.418,0,8-3.582,8-8v-128
			C392.438,92.014,388.856,88.432,384.438,88.432z M376.438,216.432h-112v-112h112V216.432z"/>
	</g>
</g>
<g>
	<g>
		<path d="M254.086,23.647c-10.226,4.974-19.863,11.077-28.73,18.195l10.016,12.477c7.934-6.37,16.557-11.831,25.707-16.281
			L254.086,23.647z"/>
	</g>
</g>
<g>
	<g>
		<path d="M319.965,8.436c-11.372,0.029-22.706,1.329-33.789,3.875l3.594,15.594c9.92-2.281,20.064-3.444,30.242-3.469
			L319.965,8.436z"/>
	</g>
</g>
<g>
	<g>
		<path d="M405.286,266.725c-7.947,6.353-16.58,11.796-25.738,16.227l6.961,14.406c10.237-4.95,19.887-11.033,28.769-18.133
			L405.286,266.725z"/>
	</g>
</g>
<g>
	<g>
		<path d="M214.234,245.389l-12.492,10c7.111,8.875,15.19,16.93,24.086,24.016l9.969-12.516
			C227.833,260.545,220.601,253.334,214.234,245.389z"/>
	</g>
</g>
<g>
	<g>
		<path d="M457.156,93.94l-14.383,7.008c4.455,9.146,7.863,18.765,10.16,28.676l15.586-3.602
			C465.953,114.934,462.141,104.171,457.156,93.94z"/>
	</g>
</g>
<g>
	<g>
		<path d="M456.438,160.432c0.004,10.177-1.128,20.324-3.375,30.25l15.602,3.547c2.512-11.09,3.777-22.426,3.773-33.797v-0.598
			L456.438,160.432z"/>
	</g>
</g>
<g>
	<g>
		<path d="M414.801,41.26l-9.945,12.539c7.978,6.327,15.226,13.524,21.609,21.457l12.469-10.031
			C431.803,56.367,423.709,48.329,414.801,41.26z"/>
	</g>
</g>
<g>
	<g>
		<path d="M443.016,219.42c-4.421,9.168-9.859,17.809-16.211,25.762l12.508,9.984c7.096-8.893,13.173-18.554,18.117-28.8
			L443.016,219.42z"/>
	</g>
</g>
<g>
	<g>
		<path d="M353.774,12.1l-3.492,15.617c9.931,2.223,19.578,5.562,28.758,9.953l6.906-14.438
			C375.674,18.324,364.882,14.589,353.774,12.1z"/>
	</g>
</g>
<g>
	<g>
		<path d="M187.875,190.959l-15.594,3.578c2.545,11.092,6.335,21.86,11.297,32.102l14.398-6.977
			C193.539,210.506,190.15,200.877,187.875,190.959z"/>
	</g>
</g>
<g>
	<g>
		<path d="M261.579,283.073l-6.93,14.422c10.26,4.927,21.041,8.683,32.141,11.199l3.531-15.609
			C280.395,290.836,270.753,287.478,261.579,283.073z"/>
	</g>
</g>
<g>
	<g>
		<path d="M172.141,126.944c-2.465,10.992-3.707,22.223-3.703,33.488v0.297l16-0.297c-0.005-10.085,1.106-20.14,3.313-29.98
			L172.141,126.944z"/>
	</g>
</g>
<g>
	<g>
		<path d="M350.828,293.022c-9.923,2.26-20.069,3.403-30.246,3.406l0.008,16c11.373-0.005,22.711-1.281,33.801-3.805
			L350.828,293.022z"/>
	</g>
</g>
<g>
	<g>
		<path d="M201.359,65.951c-7.075,8.907-13.131,18.578-18.055,28.832l14.43,6.922c4.404-9.177,9.824-17.831,16.156-25.801
			L201.359,65.951z"/>
	</g>
</g>
<g>
	<g>
		<path d="M325.238,122.034c-2.845-2.133-6.756-2.133-9.602,0l-32,24l9.602,12.797l19.199-14.399v56h16v-56l19.199,14.399
			l9.602-12.797L325.238,122.034z"/>
	</g>
</g>
<g>
	<g>
		<path d="M425.735,360.432c-0.578-0.009-1.157-0.009-1.735,0H228.629c1.975-12.359-2.104-24.915-10.965-33.754l-43.879-44.102
			c-11.148-11.591-26.535-18.143-42.617-18.145H8c-4.418,0-8,3.582-8,8v144c0,4.418,3.582,8,8,8h67.07
			c11.371-0.039,22.131,5.147,29.184,14.066l7.586,8.941c13.539,15.911,33.397,25.053,54.289,24.992H424
			c30.928,0.479,56.388-24.204,56.868-55.132C481.347,386.372,456.663,360.911,425.735,360.432z M425.731,456.432
			c-0.577,0.013-1.154,0.013-1.731,0v0H166.129c-16.192,0.057-31.588-7.019-42.09-19.344l-7.586-8.941
			c-10.098-12.498-25.315-19.748-41.383-19.715H16v-128h115.168c11.766,0.005,23.021,4.812,31.16,13.309l43.992,44.219
			c9.011,9.071,8.963,23.729-0.107,32.74c-9.045,8.986-23.652,8.967-32.674-0.041l-39.883-39.883l-11.313,11.312l39.883,39.883
			c15.286,15.287,40.07,15.289,55.358,0.003c0.838-0.838,1.637-1.713,2.396-2.624c0.789-0.945,1.531-1.922,2.219-2.918H424
			c22.091-0.478,40.387,17.043,40.865,39.135C465.343,437.658,447.822,455.954,425.731,456.432z"/>
	</g>
</g>
<g>
</g>
<g>
</g>
<g>
</g>
<g>
</g>
<g>
</g>
<g>
</g>
<g>
</g>
<g>
</g>
<g>
</g>
<g>
</g>
<g>
</g>
<g>
</g>
<g>
</g>
<g>
</g>
<g>
</g>
</svg>
