<svg height="480pt" viewBox="0 0 480 480" width="480pt" xmlns="http://www.w3.org/2000/svg"><path d="m275.601562 320c7.933594-8.773438 12.351563-20.167969 12.398438-32v-3.441406c17.230469-7.648438 26.785156-26.289063 22.925781-44.742188-3.855469-18.453125-20.074219-31.710937-38.925781-31.816406h-89.601562c-7.933594.042969-14.355469 6.464844-14.398438 14.398438v25.601562c.039062 15.867188 9.457031 30.210938 24 36.558594v3.441406c.046875 11.832031 4.464844 23.226562 12.398438 32-29.511719 1.902344-52.460938 26.425781-52.398438 56v96c0 4.417969 3.582031 8 8 8s8-3.582031 8-8v-96c0-22.089844 17.910156-40 40-40h9.359375c-3.042969 8.644531-.902344 18.265625 5.519531 24.800781l-6.878906 54.238281c-.222656 1.882813.230469 3.78125 1.28125 5.359376l16 24c1.484375 2.214843 3.972656 3.539062 6.640625 3.539062 2.664063 0 5.152344-1.324219 6.636719-3.539062l16-24c1.050781-1.578126 1.503906-3.476563 1.28125-5.359376l-6.800782-54.320312c6.421876-6.5 8.59375-16.085938 5.601563-24.71875h9.359375c22.089844 0 40 17.910156 40 40v96c0 4.417969 3.582031 8 8 8s8-3.582031 8-8v-96c.0625-29.574219-22.886719-54.097656-52.398438-56zm-67.601562-32v-32h64v32c0 17.671875-14.328125 32-32 32s-32-14.328125-32-32zm-24-40v-24h88c13.253906 0 24 10.746094 24 24-.035156 6.785156-2.941406 13.238281-8 17.761719v-17.761719c0-4.417969-3.582031-8-8-8h-80c-4.417969 0-8 3.582031-8 8v17.761719c-5.058594-4.523438-7.964844-10.976563-8-17.761719zm56 177.601562-8-11.601562 6.078125-46h3.84375l6.078125 46zm8-81.601562c.015625 2.601562-1.238281 5.050781-3.359375 6.558594-2.632813 1.691406-6.007813 1.691406-8.640625 0-2.363281-1.359375-3.871094-3.832032-4-6.558594 0-4.417969 3.582031-8 8-8s8 3.582031 8 8zm0 0"/><path d="m192 376c-4.417969 0-8 3.582031-8 8v88c0 4.417969 3.582031 8 8 8s8-3.582031 8-8v-88c0-4.417969-3.582031-8-8-8zm0 0"/><path d="m288 376c-4.417969 0-8 3.582031-8 8v88c0 4.417969 3.582031 8 8 8s8-3.582031 8-8v-88c0-4.417969-3.582031-8-8-8zm0 0"/><path d="m397.921875 314.480469c6.476563-7.300781 10.0625-16.71875 10.078125-26.480469v-32c0-22.089844-17.910156-40-40-40h-32c-4.417969 0-8 3.582031-8 8v64c.015625 9.761719 3.601562 19.179688 10.078125 26.480469-4.59375 1.703125-8.824219 4.253906-12.476563 7.519531-3.3125 2.917969-3.632812 7.964844-.722656 11.28125 2.917969 3.308594 7.964844 3.628906 11.28125.71875 1.46875-1.335938 3.109375-2.464844 4.878906-3.359375l18.960938 32v69.359375c0 4.417969 3.582031 8 8 8s8-3.582031 8-8v-69.761719l18.960938-32c8.136718 4.175781 13.195312 12.617188 13.039062 21.761719v80c0 4.417969 3.582031 8 8 8s8-3.582031 8-8v-80c.007812-16.730469-10.394531-31.699219-26.078125-37.519531zm-53.921875-26.480469v-24h48v24c0 13.253906-10.746094 24-24 24s-24-10.746094-24-24zm0-56h24c10.175781-.003906 19.25 6.40625 22.640625 16h-46.640625zm24 112.480469-9.839844-16.480469h19.679688zm0 0"/><path d="m156.320312 323.679688c-4.101562-4.042969-9.007812-7.175782-14.398437-9.199219 6.476563-7.300781 10.0625-16.71875 10.078125-26.480469v-48c0-13.253906-10.746094-24-24-24h-32c-13.253906 0-24 10.746094-24 24v48c.015625 9.761719 3.601562 19.179688 10.078125 26.480469-15.683594 5.820312-26.085937 20.789062-26.078125 37.519531v80c0 4.417969 3.582031 8 8 8s8-3.582031 8-8v-80c-.003906-9.003906 5.03125-17.25 13.039062-21.359375l18.960938 32v69.359375c0 4.417969 3.582031 8 8 8s8-3.582031 8-8v-69.761719l18.960938-32c2.226562 1.128907 4.253906 2.617188 6 4.402344 3.136718 3.136719 8.222656 3.136719 11.359374 0 3.136719-3.136719 3.136719-8.222656 0-11.359375zm-68.320312-35.679688v-24h48v24c0 13.253906-10.746094 24-24 24s-24-10.746094-24-24zm0-48c0-4.417969 3.582031-8 8-8h32c4.417969 0 8 3.582031 8 8v8h-48zm24 104.480469-9.839844-16.480469h19.679688zm0 0"/><path d="m112 200c4.417969 0 8-3.582031 8-8v-176h240v176c0 4.417969 3.582031 8 8 8s8-3.582031 8-8v-184c0-4.417969-3.582031-8-8-8h-256c-4.417969 0-8 3.582031-8 8v184c0 4.417969 3.582031 8 8 8zm0 0"/><path d="m320 72c0-4.417969-3.582031-8-8-8h-136v-16h136c4.417969 0 8-3.582031 8-8s-3.582031-8-8-8h-144c-4.417969 0-8 3.582031-8 8v32c0 4.417969 3.582031 8 8 8h144c4.417969 0 8-3.582031 8-8zm0 0"/><path d="m148 120c-4.417969 0-8 3.582031-8 8v40c0 4.417969 3.582031 8 8 8h40c4.417969 0 8-3.582031 8-8v-40c0-4.417969-3.582031-8-8-8zm32 40h-24v-24h24zm0 0"/><path d="m260 136c4.417969 0 8-3.582031 8-8s-3.582031-8-8-8h-40c-4.417969 0-8 3.582031-8 8v40c0 4.417969 3.582031 8 8 8h40c4.417969 0 8-3.582031 8-8s-3.582031-8-8-8h-32v-24zm0 0"/><path d="m292 176h40c4.417969 0 8-3.582031 8-8v-40c0-4.417969-3.582031-8-8-8h-40c-4.417969 0-8 3.582031-8 8v40c0 4.417969 3.582031 8 8 8zm8-40h24v24h-24zm0 0"/><path d="m472 88h-72c-4.417969 0-8 3.582031-8 8s3.582031 8 8 8h64v16h-64c-4.417969 0-8 3.582031-8 8s3.582031 8 8 8h64v16h-64c-4.417969 0-8 3.582031-8 8s3.582031 8 8 8h64v16h-64c-4.417969 0-8 3.582031-8 8s3.582031 8 8 8h64v16h-40c-4.417969 0-8 3.582031-8 8s3.582031 8 8 8h40v16h-32c-4.417969 0-8 3.582031-8 8s3.582031 8 8 8h32v168c0 4.417969 3.582031 8 8 8s8-3.582031 8-8v-336c0-4.417969-3.582031-8-8-8zm0 0"/><path d="m88 40c0-4.417969-3.582031-8-8-8h-72c-4.417969 0-8 3.582031-8 8v392c0 4.417969 3.582031 8 8 8s8-3.582031 8-8v-384h64c4.417969 0 8-3.582031 8-8zm0 0"/><path d="m80 88c4.417969 0 8-3.582031 8-8s-3.582031-8-8-8h-40c-4.417969 0-8 3.582031-8 8v32c0 4.417969 3.582031 8 8 8h40c4.417969 0 8-3.582031 8-8s-3.582031-8-8-8h-32v-16zm0 0"/><path d="m80 160c4.417969 0 8-3.582031 8-8s-3.582031-8-8-8h-40c-4.417969 0-8 3.582031-8 8v32c0 4.417969 3.582031 8 8 8h40c4.417969 0 8-3.582031 8-8s-3.582031-8-8-8h-32v-16zm0 0"/><path d="m48 248v-16h8c4.417969 0 8-3.582031 8-8s-3.582031-8-8-8h-16c-4.417969 0-8 3.582031-8 8v32c0 4.417969 3.582031 8 8 8h8c4.417969 0 8-3.582031 8-8s-3.582031-8-8-8zm0 0"/></svg>