<svg height="682pt" viewBox="-21 -23 682.66669 682" width="682pt" xmlns="http://www.w3.org/2000/svg"><path d="m513.75 62.667969h-119.550781c-5.960938-35.425781-36.851563-62.5-73.949219-62.5h-.5c-37.097656 0-67.988281 27.074219-73.949219 62.5h-157.988281c-6.914062 0-12.5 5.585937-12.5 12.5v164.796875l-71.636719 71.339844c-2.351562 2.347656-3.675781 5.535156-3.675781 8.863281 0 3.324219 1.324219 6.511719 3.675781 8.847656l71.636719 71.335937v159.816407c0 6.898437 5.585938 12.5 12.5 12.5h126.609375l-23.109375 23.011719c-4.886719 4.871093-4.902344 12.789062-.023438 17.675781 2.4375 2.460937 5.632813 3.6875 8.847657 3.6875 3.1875 0 6.386719-1.210938 8.828125-3.652344l28.285156-28.175781c12.085938 29.078125 44.609375 49.953125 82.75 49.953125 48.414062 0 87.8125-33.652344 87.8125-75 0-41.363281-39.398438-75-87.8125-75-38.125 0-70.664062 20.863281-82.75 49.933593l-28.101562-27.972656c-4.886719-4.871094-12.800782-4.863281-17.671876.039063-4.875 4.886719-4.851562 12.796875.039063 17.671875l22.921875 22.828125h-114.125v-147.324219l67.949219-67.664062 76.488281.097656v49.890625c0 6.898437 5.585938 12.5 12.5 12.5h125.5c6.914062 0 12.5-5.601563 12.5-12.5v-125c0-6.914063-5.585938-12.5-12.5-12.5h-125.5c-6.914062 0-12.5 5.585937-12.5 12.5v50.109375l-76.464844-.097656-67.972656-67.699219v-152.3125h145.488281c5.960938 35.421875 36.851563 62.5 73.949219 62.5h.5c37.097656 0 67.988281-27.078125 73.949219-62.5h119.550781c6.898438 0 12.5-5.601563 12.5-12.5 0-6.914063-5.601562-12.5-12.5-12.5zm-256.546875 497.433593c.03125-27.546874 28.195313-49.933593 62.796875-49.933593 34.640625 0 62.8125 22.425781 62.8125 50 0 27.5625-28.171875 50-62.8125 50-34.625 0-62.796875-22.4375-62.796875-50zm-.214844 2.324219c-.226562 1.25-.640625 2.46875-1.265625 3.605469.601563-1.136719 1.027344-2.355469 1.265625-3.605469zm12.761719-292.257812h100.5v100h-100.5zm-124.351562 50-57.585938 57.347656-57.597656-57.347656 57.597656-57.363281zm174.851562-195h-.5c-27.578125 0-50-22.4375-50-50 0-27.574219 22.421875-50 50-50h.5c27.578125 0 50 22.425781 50 50 0 27.5625-22.421875 50-50 50zm0 0"/><path d="m627.5 245.167969h-51.25v-120c0-6.914063-5.601562-12.5-12.5-12.5s-12.5 5.585937-12.5 12.5v120h-49.261719c-6.902343 0-12.5 5.585937-12.5 12.5v125c0 6.898437 5.597657 12.5 12.5 12.5h125.511719c6.898438 0 12.5-5.601563 12.5-12.5v-125c0-6.914063-5.601562-12.5-12.5-12.5zm-12.5 125h-100.511719v-100h100.511719zm0 0"/><path d="m563.773438 87.660156c-6.902344 0-12.503907-5.59375-12.503907-12.5 0-6.902344 5.589844-12.5 12.496094-12.5h.007813c6.90625 0 12.5 5.597656 12.5 12.5 0 6.90625-5.59375 12.5-12.5 12.5zm0 0"/></svg>