<svg height="464pt" viewBox="0 0 464 464" width="464pt" xmlns="http://www.w3.org/2000/svg"><path d="m464 384c0 44.183594-35.816406 80-80 80s-80-35.816406-80-80 35.816406-80 80-80 80 35.816406 80 80zm0 0" fill="#ab2300"/><g fill="#898890"><path d="m85.65625 186.34375c-3.125-3.121094-8.1875-3.121094-11.3125 0l-37.253906 37.257812c-3.035156 3.136719-2.992188 8.128907.09375 11.214844 3.085937 3.085938 8.078125 3.128906 11.214844.09375l23.601562-23.597656v100.6875c0 4.417969 3.582031 8 8 8s8-3.582031 8-8v-100.6875l23.601562 23.597656c3.136719 3.035156 8.128907 2.992188 11.214844-.09375 3.085938-3.085937 3.128906-8.078125.09375-11.214844zm0 0"/><path d="m426.910156 229.089844c-3.121094-3.125-8.1875-3.125-11.308594 0l-23.601562 23.597656v-116.6875c0-4.417969-3.582031-8-8-8s-8 3.582031-8 8v116.6875l-23.601562-23.597656c-3.136719-3.035156-8.128907-2.992188-11.214844.09375-3.085938 3.085937-3.128906 8.078125-.09375 11.214844l37.253906 37.257812c3.125 3.121094 8.1875 3.121094 11.3125 0l37.253906-37.257812c3.125-3.121094 3.125-8.1875 0-11.308594zm0 0"/><path d="m232.398438 37.089844c-2.007813-2.082032-4.980469-2.914063-7.777344-2.183594s-4.984375 2.917969-5.714844 5.714844.101562 5.769531 2.183594 7.777344l23.597656 23.601562h-84.6875c-4.417969 0-8 3.582031-8 8s3.582031 8 8 8h84.6875l-23.597656 23.601562c-2.082032 2.007813-2.914063 4.980469-2.183594 7.777344s2.917969 4.984375 5.714844 5.714844 5.769531-.101562 7.777344-2.183594l37.257812-37.253906c3.121094-3.125 3.121094-8.1875 0-11.3125zm0 0"/></g><path d="m160 80c0 44.183594-35.816406 80-80 80s-80-35.816406-80-80 35.816406-80 80-80 80 35.816406 80 80zm0 0" fill="#009698"/><path d="m312 92.390625 61.894531 50.546875c5.890625 4.808594 14.351563 4.808594 20.242188 0l61.863281-50.546875c3.726562-3.039063 5.886719-7.589844 5.886719-12.398437 0-4.808594-2.160157-9.363282-5.886719-12.398438l-61.878906-50.53125c-5.890625-4.808594-14.351563-4.808594-20.242188 0l-61.878906 50.546875c-3.71875 3.039063-5.878906 7.585937-5.878906 12.390625s2.160156 9.351562 5.878906 12.390625zm0 0" fill="#ffcd00"/><path d="m0 320v128c0 8.835938 7.164062 16 16 16h128c8.835938 0 16-7.164062 16-16v-128c0-8.835938-7.164062-16-16-16h-128c-8.835938 0-16 7.164062-16 16zm0 0" fill="#ff5023"/></svg>